<?xml version="1.0" encoding="utf-8"?>
<!-- Generator: Adobe Illustrator 24.1.0, SVG Export Plug-In . SVG Version: 6.00 Build 0)  -->
<svg version="1.1" id="Layer_1" xmlns="http://www.w3.org/2000/svg" xmlns:xlink="http://www.w3.org/1999/xlink" x="0px" y="0px"
	 viewBox="0 0 224.02 32.37" style="enable-background:new 0 0 224.02 32.37;" xml:space="preserve">
<style type="text/css">
	.st0{fill:#CEB9FF;}
</style>
<g>
	<g>
		<path d="M54.06,9.82c0.62,0.37,1.1,0.87,1.45,1.51c0.35,0.64,0.52,1.36,0.52,2.15v0.24c0,0.79-0.17,1.51-0.52,2.16
			c-0.35,0.65-0.83,1.15-1.45,1.52c-0.62,0.37-1.33,0.55-2.12,0.55h-3.07v4.13h-4.11V9.27h7.19C52.73,9.27,53.44,9.45,54.06,9.82z
			 M48.87,14.95h1.69c0.43,0,0.76-0.11,0.98-0.34c0.22-0.22,0.33-0.53,0.33-0.91v-0.15c0-0.4-0.11-0.7-0.33-0.92
			c-0.22-0.22-0.54-0.33-0.98-0.33h-1.69V14.95z"/>
		<path d="M66.14,12.78c0.94,0.5,1.41,1.32,1.41,2.45v3.83c0,0.21,0.05,0.38,0.15,0.52c0.1,0.14,0.25,0.2,0.45,0.2h0.67v2.14
			c-0.04,0.02-0.13,0.07-0.29,0.12c-0.16,0.06-0.38,0.11-0.66,0.17c-0.29,0.06-0.61,0.08-0.99,0.08c-0.72,0-1.31-0.11-1.78-0.33
			c-0.47-0.22-0.79-0.52-0.96-0.9c-0.47,0.37-1,0.67-1.58,0.89c-0.58,0.22-1.27,0.33-2.05,0.33c-2.31,0-3.46-0.92-3.46-2.76
			c0-0.96,0.26-1.68,0.77-2.19c0.52-0.5,1.26-0.85,2.22-1.03c0.97-0.19,2.23-0.28,3.8-0.28v-0.48c0-0.38-0.13-0.68-0.4-0.87
			c-0.27-0.2-0.61-0.3-1.03-0.3c-0.38,0-0.72,0.07-1,0.2C61.14,14.73,61,14.95,61,15.25v0.07h-3.65c-0.01-0.06-0.02-0.15-0.02-0.26
			c0-0.93,0.44-1.67,1.33-2.22c0.89-0.55,2.16-0.82,3.81-0.82C63.98,12.03,65.2,12.28,66.14,12.78z M61.52,18.14
			c-0.5,0.23-0.75,0.54-0.75,0.92c0,0.62,0.42,0.93,1.27,0.93c0.48,0,0.91-0.13,1.28-0.39c0.37-0.26,0.55-0.58,0.55-0.97V17.8
			C62.8,17.8,62.02,17.91,61.52,18.14z"/>
		<path d="M79.77,13.33c0.72,0.87,1.08,2.15,1.08,3.85c0,1.69-0.36,2.96-1.08,3.83c-0.72,0.86-1.74,1.29-3.07,1.29
			c-1.14,0-2.06-0.37-2.76-1.12v4.56h-3.7v-13.5h3.02l0.32,1.4c0.72-1.08,1.76-1.62,3.13-1.62C78.03,12.03,79.05,12.46,79.77,13.33z
			 M74.31,15.34c-0.27,0.38-0.41,0.89-0.41,1.51v0.61c0,0.62,0.14,1.13,0.41,1.52c0.27,0.39,0.68,0.59,1.23,0.59
			c1.07,0,1.6-0.64,1.6-1.92v-0.99c0-1.27-0.53-1.9-1.6-1.9C75,14.76,74.59,14.96,74.31,15.34z"/>
		<path d="M91.16,12.78c0.94,0.5,1.41,1.32,1.41,2.45v3.83c0,0.21,0.05,0.38,0.15,0.52c0.1,0.14,0.25,0.2,0.45,0.2h0.67v2.14
			c-0.04,0.02-0.13,0.07-0.29,0.12c-0.16,0.06-0.38,0.11-0.66,0.17c-0.29,0.06-0.61,0.08-0.99,0.08c-0.72,0-1.31-0.11-1.78-0.33
			c-0.47-0.22-0.79-0.52-0.96-0.9c-0.47,0.37-1,0.67-1.58,0.89c-0.58,0.22-1.27,0.33-2.05,0.33c-2.31,0-3.46-0.92-3.46-2.76
			c0-0.96,0.26-1.68,0.77-2.19c0.52-0.5,1.26-0.85,2.22-1.03c0.97-0.19,2.23-0.28,3.8-0.28v-0.48c0-0.38-0.13-0.68-0.4-0.87
			c-0.27-0.2-0.61-0.3-1.03-0.3c-0.38,0-0.72,0.07-1,0.2c-0.28,0.14-0.42,0.35-0.42,0.65v0.07h-3.65c-0.01-0.06-0.02-0.15-0.02-0.26
			c0-0.93,0.44-1.67,1.33-2.22c0.89-0.55,2.16-0.82,3.81-0.82C89,12.03,90.22,12.28,91.16,12.78z M86.54,18.14
			c-0.5,0.23-0.75,0.54-0.75,0.92c0,0.62,0.42,0.93,1.27,0.93c0.48,0,0.91-0.13,1.28-0.39c0.37-0.26,0.55-0.58,0.55-0.97V17.8
			C87.82,17.8,87.04,17.91,86.54,18.14z"/>
		<path d="M99.94,24.92c-0.74,0.71-1.77,1.07-3.1,1.07c-0.81,0-1.52-0.11-2.14-0.33v-2.22h1.49c0.93,0,1.48-0.45,1.66-1.36
			l-3.91-9.83h3.98l1.88,6.53h0.13l1.73-6.53h3.65l-3.5,9.53C101.3,23.16,100.68,24.2,99.94,24.92z"/>
		<path d="M115.32,13.29c0.95,0.84,1.42,2.13,1.42,3.87v0.63h-7.37c0,0.71,0.16,1.24,0.47,1.6c0.32,0.36,0.82,0.54,1.5,0.54
			c0.62,0,1.08-0.13,1.37-0.39c0.29-0.26,0.44-0.61,0.44-1.04h3.59c0,1.19-0.45,2.12-1.36,2.79c-0.91,0.67-2.23,1.01-3.97,1.01
			c-1.82,0-3.24-0.42-4.24-1.27s-1.51-2.14-1.51-3.86c0-1.69,0.49-2.97,1.47-3.83c0.98-0.87,2.33-1.3,4.06-1.3
			C112.99,12.03,114.37,12.45,115.32,13.29z M109.39,16.05H113c0-0.51-0.15-0.91-0.44-1.21c-0.29-0.3-0.7-0.45-1.22-0.45
			C110.18,14.39,109.52,14.94,109.39,16.05z"/>
		<path d="M134.67,9.51c0.93,0.31,1.64,0.73,2.14,1.27c0.5,0.53,0.74,1.12,0.74,1.77v0.47h-3.3c0-0.38-0.23-0.7-0.68-0.96
			c-0.45-0.25-1.11-0.38-1.96-0.38c-0.8,0-1.4,0.15-1.82,0.46c-0.42,0.3-0.62,0.67-0.62,1.11c0,0.38,0.13,0.68,0.38,0.87
			c0.25,0.2,0.57,0.3,0.94,0.3h1.94v2.29h-2.35c-0.38,0-0.7,0.11-0.94,0.34c-0.24,0.23-0.36,0.56-0.36,1c0,0.51,0.21,0.91,0.64,1.2
			c0.43,0.29,1.11,0.44,2.04,0.44c1.86,0,2.79-0.55,2.79-1.66v-3.61h5.88v2.29h-2.55v1.25c0,1.39-0.49,2.46-1.48,3.22
			c-0.99,0.76-2.53,1.14-4.63,1.14c-2.16,0-3.78-0.35-4.86-1.04c-1.08-0.69-1.62-1.61-1.62-2.76c0-0.74,0.2-1.39,0.59-1.93
			c0.39-0.54,0.94-0.92,1.65-1.14v-0.07c-0.53-0.2-0.98-0.54-1.33-1.02s-0.53-1.02-0.53-1.62c0-0.67,0.23-1.28,0.68-1.84
			c0.45-0.56,1.13-1,2.04-1.33c0.91-0.33,2-0.49,3.28-0.49C132.64,9.05,133.74,9.2,134.67,9.51z"/>
		<path d="M158.04,9.67c0.54,0.27,0.97,0.64,1.28,1.13c0.32,0.48,0.47,1.02,0.47,1.62c0,1.58-0.71,2.57-2.14,2.98v0.07
			c1.63,0.37,2.44,1.44,2.44,3.2c0,0.67-0.16,1.26-0.49,1.78s-0.78,0.92-1.35,1.2c-0.57,0.29-1.2,0.43-1.88,0.43h-8.64V9.27h8.53
			C156.91,9.27,157.5,9.4,158.04,9.67z M151.85,14.26h2.83c0.27,0,0.5-0.1,0.68-0.29c0.18-0.19,0.27-0.43,0.27-0.72v-0.19
			c0-0.27-0.09-0.51-0.28-0.7c-0.19-0.19-0.41-0.29-0.67-0.29h-2.83V14.26z M151.85,19.1h3.13c0.27,0,0.5-0.1,0.68-0.29
			c0.18-0.19,0.27-0.43,0.27-0.72v-0.19c0-0.28-0.09-0.52-0.27-0.72c-0.18-0.19-0.41-0.29-0.68-0.29h-3.13V19.1z"/>
		<path d="M170.48,12.78c0.94,0.5,1.41,1.32,1.41,2.45v3.83c0,0.21,0.05,0.38,0.15,0.52c0.1,0.14,0.25,0.2,0.45,0.2h0.67v2.14
			c-0.04,0.02-0.13,0.07-0.29,0.12c-0.16,0.06-0.37,0.11-0.66,0.17c-0.29,0.06-0.61,0.08-0.99,0.08c-0.72,0-1.31-0.11-1.78-0.33
			c-0.47-0.22-0.78-0.52-0.96-0.9c-0.47,0.37-1,0.67-1.58,0.89c-0.58,0.22-1.27,0.33-2.05,0.33c-2.31,0-3.46-0.92-3.46-2.76
			c0-0.96,0.26-1.68,0.77-2.19c0.52-0.5,1.26-0.85,2.22-1.03c0.97-0.19,2.23-0.28,3.8-0.28v-0.48c0-0.38-0.13-0.68-0.4-0.87
			s-0.61-0.3-1.03-0.3c-0.38,0-0.72,0.07-1,0.2c-0.28,0.14-0.42,0.35-0.42,0.65v0.07h-3.65c-0.01-0.06-0.02-0.15-0.02-0.26
			c0-0.93,0.44-1.67,1.33-2.22s2.16-0.82,3.81-0.82C168.32,12.03,169.54,12.28,170.48,12.78z M165.86,18.14
			c-0.5,0.23-0.75,0.54-0.75,0.92c0,0.62,0.42,0.93,1.27,0.93c0.48,0,0.91-0.13,1.28-0.39c0.37-0.26,0.55-0.58,0.55-0.97V17.8
			C167.14,17.8,166.36,17.91,165.86,18.14z"/>
		<path d="M183.72,12.98c0.57,0.63,0.86,1.54,0.86,2.74v6.37h-3.7v-5.92c0-0.42-0.11-0.76-0.33-1.01c-0.22-0.25-0.52-0.38-0.92-0.38
			c-0.46,0-0.83,0.15-1.12,0.45c-0.29,0.3-0.43,0.66-0.43,1.1v5.77h-3.7v-9.83h3.03l0.24,1.49c0.38-0.52,0.89-0.94,1.52-1.25
			c0.63-0.31,1.29-0.47,1.98-0.47C182.29,12.03,183.15,12.34,183.72,12.98z"/>
		<path d="M195.32,12.78c0.94,0.5,1.41,1.32,1.41,2.45v3.83c0,0.21,0.05,0.38,0.15,0.52c0.1,0.14,0.25,0.2,0.45,0.2H198v2.14
			c-0.04,0.02-0.13,0.07-0.29,0.12c-0.16,0.06-0.37,0.11-0.66,0.17c-0.29,0.06-0.61,0.08-0.99,0.08c-0.72,0-1.31-0.11-1.78-0.33
			c-0.47-0.22-0.78-0.52-0.96-0.9c-0.47,0.37-1,0.67-1.58,0.89c-0.58,0.22-1.27,0.33-2.05,0.33c-2.31,0-3.46-0.92-3.46-2.76
			c0-0.96,0.26-1.68,0.77-2.19c0.52-0.5,1.26-0.85,2.22-1.03c0.97-0.19,2.23-0.28,3.8-0.28v-0.48c0-0.38-0.13-0.68-0.4-0.87
			s-0.61-0.3-1.03-0.3c-0.38,0-0.72,0.07-1,0.2c-0.28,0.14-0.42,0.35-0.42,0.65v0.07h-3.65c-0.01-0.06-0.02-0.15-0.02-0.26
			c0-0.93,0.44-1.67,1.33-2.22s2.16-0.82,3.81-0.82C193.15,12.03,194.38,12.28,195.32,12.78z M190.69,18.14
			c-0.5,0.23-0.75,0.54-0.75,0.92c0,0.62,0.42,0.93,1.27,0.93c0.48,0,0.91-0.13,1.28-0.39c0.37-0.26,0.55-0.58,0.55-0.97V17.8
			C191.97,17.8,191.2,17.91,190.69,18.14z"/>
		<path d="M208.55,12.98c0.57,0.63,0.86,1.54,0.86,2.74v6.37h-3.7v-5.92c0-0.42-0.11-0.76-0.33-1.01c-0.22-0.25-0.52-0.38-0.92-0.38
			c-0.46,0-0.83,0.15-1.12,0.45c-0.29,0.3-0.43,0.66-0.43,1.1v5.77h-3.7v-9.83h3.03l0.24,1.49c0.38-0.52,0.89-0.94,1.52-1.25
			c0.63-0.31,1.29-0.47,1.98-0.47C207.13,12.03,207.98,12.34,208.55,12.98z"/>
		<path d="M220.15,12.78c0.94,0.5,1.41,1.32,1.41,2.45v3.83c0,0.21,0.05,0.38,0.15,0.52c0.1,0.14,0.25,0.2,0.45,0.2h0.67v2.14
			c-0.04,0.02-0.13,0.07-0.29,0.12c-0.16,0.06-0.37,0.11-0.66,0.17c-0.29,0.06-0.61,0.08-0.99,0.08c-0.72,0-1.31-0.11-1.78-0.33
			c-0.47-0.22-0.78-0.52-0.96-0.9c-0.47,0.37-1,0.67-1.58,0.89c-0.58,0.22-1.27,0.33-2.05,0.33c-2.31,0-3.46-0.92-3.46-2.76
			c0-0.96,0.26-1.68,0.77-2.19c0.52-0.5,1.26-0.85,2.22-1.03c0.97-0.19,2.23-0.28,3.8-0.28v-0.48c0-0.38-0.13-0.68-0.4-0.87
			s-0.61-0.3-1.03-0.3c-0.38,0-0.72,0.07-1,0.2c-0.28,0.14-0.42,0.35-0.42,0.65v0.07h-3.65c-0.01-0.06-0.02-0.15-0.02-0.26
			c0-0.93,0.44-1.67,1.33-2.22s2.16-0.82,3.81-0.82C217.99,12.03,219.21,12.28,220.15,12.78z M215.53,18.14
			c-0.5,0.23-0.75,0.54-0.75,0.92c0,0.62,0.42,0.93,1.27,0.93c0.48,0,0.91-0.13,1.28-0.39c0.37-0.26,0.55-0.58,0.55-0.97V17.8
			C216.81,17.8,216.03,17.91,215.53,18.14z"/>
	</g>
	<circle class="st0" cx="16.19" cy="16.19" r="16.19"/>
	<g>
		<path d="M12.65,7.73c0.41,0.24,0.73,0.57,0.96,0.99s0.34,0.89,0.34,1.42v0.16c0,0.52-0.11,1-0.34,1.42s-0.55,0.76-0.96,1
			c-0.41,0.24-0.88,0.36-1.4,0.36H9.23v2.72H6.52V7.37h4.74C11.78,7.37,12.24,7.49,12.65,7.73z M9.23,11.11h1.12
			c0.29,0,0.5-0.07,0.64-0.22c0.14-0.15,0.21-0.35,0.21-0.6v-0.1c0-0.26-0.07-0.46-0.21-0.61c-0.14-0.14-0.36-0.21-0.64-0.21H9.23
			V11.11z"/>
		<path d="M16.91,17.23l1.19,0.27c-0.06,0.22-0.12,0.4-0.18,0.53c-0.06,0.13-0.14,0.29-0.24,0.47l0.57,0.39
			c0.07,0.04,0.16,0.1,0.27,0.16l-0.82,0.94c-0.15-0.08-0.31-0.17-0.47-0.28c-0.16-0.1-0.31-0.19-0.43-0.27
			c-0.26,0.17-0.53,0.3-0.79,0.38c-0.37,0.11-0.78,0.16-1.25,0.16c-0.73,0-1.28-0.15-1.63-0.46s-0.54-0.67-0.54-1.11
			c0-0.31,0.1-0.61,0.31-0.89c0.21-0.28,0.55-0.51,1.03-0.71c-0.2-0.24-0.34-0.45-0.41-0.63c-0.07-0.18-0.11-0.36-0.11-0.54
			c0-0.39,0.15-0.71,0.45-0.96c0.3-0.25,0.75-0.38,1.35-0.38c0.62,0,1.07,0.12,1.36,0.36C16.85,14.91,17,15.2,17,15.54
			c0,0.19-0.04,0.37-0.13,0.54c-0.09,0.17-0.2,0.31-0.32,0.42s-0.35,0.27-0.67,0.48c0.27,0.27,0.54,0.52,0.83,0.75
			C16.79,17.56,16.85,17.4,16.91,17.23z M14.61,17.6c-0.21,0.15-0.35,0.27-0.42,0.38c-0.07,0.1-0.1,0.22-0.1,0.33
			c0,0.18,0.08,0.34,0.24,0.49c0.16,0.14,0.36,0.21,0.61,0.21c0.27,0,0.58-0.11,0.92-0.32C15.53,18.44,15.12,18.08,14.61,17.6z
			 M15.15,16.27c0.2-0.11,0.35-0.22,0.46-0.35c0.11-0.13,0.16-0.25,0.16-0.36c0-0.12-0.05-0.22-0.14-0.3
			c-0.09-0.08-0.21-0.12-0.37-0.12c-0.15,0-0.28,0.04-0.38,0.13s-0.15,0.2-0.15,0.32C14.74,15.75,14.88,15.97,15.15,16.27z"/>
		<path d="M26.53,16.83c0.36,0.18,0.64,0.42,0.85,0.74c0.21,0.32,0.31,0.67,0.31,1.07c0,1.04-0.47,1.69-1.41,1.96v0.05
			c1.07,0.25,1.61,0.95,1.61,2.11c0,0.44-0.11,0.83-0.33,1.17c-0.22,0.34-0.51,0.6-0.89,0.79c-0.38,0.19-0.79,0.28-1.24,0.28h-5.69
			v-8.44h5.62C25.78,16.57,26.17,16.66,26.53,16.83z M22.45,19.86h1.86c0.18,0,0.33-0.06,0.45-0.19s0.18-0.28,0.18-0.47v-0.12
			c0-0.18-0.06-0.33-0.18-0.46s-0.27-0.19-0.44-0.19h-1.86V19.86z M22.45,23.05h2.06c0.18,0,0.33-0.06,0.45-0.19
			s0.18-0.28,0.18-0.47v-0.12c0-0.19-0.06-0.35-0.18-0.47s-0.27-0.19-0.45-0.19h-2.06V23.05z"/>
	</g>
</g>
</svg>
